<svg width="31" height="90" viewBox="0 0 31 90" fill="none" xmlns="http://www.w3.org/2000/svg">
<path d="M0 22H13V44H0V22Z" fill="black"/>
<rect y="46" width="13" height="22" fill="black"/>
<path d="M31 22C31 24.8891 30.5991 27.7499 29.8201 30.419C29.0412 33.0882 27.8995 35.5135 26.4602 37.5564C25.0208 39.5992 23.3121 41.2197 21.4316 42.3254C19.551 43.431 17.5355 44 15.5 44L15.5 22H31Z" fill="black"/>
<path d="M31 68C31 65.1109 30.5991 62.2501 29.8201 59.581C29.0412 56.9118 27.8995 54.4865 26.4602 52.4436C25.0208 50.4008 23.3121 48.7803 21.4316 47.6746C19.551 46.569 17.5355 46 15.5 46L15.5 68H31Z" fill="black"/>
</svg>
